<svg preserveAspectRatio="xMinYMid" version="1.1" xmlns="http://www.w3.org/2000/svg" xmlns:xlink="http://www.w3.org/1999/xlink" viewBox="0 0 431.7 50">
<style type="text/css">
	.st0{fill:#FFFFFF;}
	.st1{fill:#F9B000;}
</style>
<g>
	<path class="st0" d="M41.8,48.8H31.2L17.5,33H8.9v15.8H0V1.5c7.5,0,15,0.1,22.4,0.1c11.1,0.1,17,7.5,17,15.6c0,6.5-3,13-11.9,14.8
		l14.3,16.1V48.8z M8.9,9.9V25h13.5c5.7,0,8.1-3.8,8.1-7.5S28,9.9,22.4,9.9H8.9z"/>
	<path class="st0" d="M52.9,48.8V1.6h8.8v47.2H52.9z"/>
	<path class="st1" d="M103.1,49h-9.2L74.3,1.6h10l14.2,36.7l14.3-36.7h10L103.1,49z"/>
	<path class="st0" d="M170.7,48.8h-35.3c0-15.7,0-31.5,0-47.2h35.3v8.6h-26.5v10.8h25.5v8.3h-25.5V40h26.5V48.8z"/>
	<path class="st0" d="M226.9,48.8h-10.6L202.5,33H194v15.8h-8.9V1.5c7.5,0,15,0.1,22.4,0.1c11.1,0.1,17,7.5,17,15.6
		c0,6.5-3,13-11.9,14.8l14.3,16.1V48.8z M194,9.9V25h13.5c5.7,0,8.1-3.8,8.1-7.5s-2.5-7.5-8.1-7.5H194z"/>
	<path class="st0" d="M268.4,13c-1.6-2.7-6.1-5.3-11.2-5.3c-6.6,0-9.8,2.8-9.8,6.3c0,4.1,4.9,5.3,10.5,5.9c9.8,1.2,19,3.8,19,15
		c0,10.5-9.3,15-19.8,15c-9.6,0-17-3-20.6-11.6l7.4-3.8c2.1,5.2,7.5,7.5,13.3,7.5c5.6,0,10.9-2,10.9-7.1c0-4.4-4.6-6.3-10.9-6.9
		c-9.6-1.1-18.5-3.7-18.5-14.3c0-9.7,9.6-13.7,18.3-13.7c7.3,0,15,2.1,18.5,9.4L268.4,13z"/>
	<polygon class="st1" points="317.2,1.6 307.5,1.6 286.4,48.8 296,48.8 312.4,11.5 328.7,48.8 338.4,48.8 	"/>
	<path class="st0" d="M349.1,48.8V1.7H383v8.6h-25v12.9h23.7v8.2H358v17.5H349.1z"/>
	<path class="st0" d="M431.7,48.8h-35.3c0-15.7,0-31.5,0-47.2h35.3v8.6h-26.5v10.8h25.5v8.3h-25.5V40h26.5V48.8z"/>
</g>
</svg>
